<svg id="svg" fill="#FFFFFF" stroke="#FFFFFF" width="200px" height="200px" version="1.1" viewBox="144 144 512 512" xmlns="http://www.w3.org/2000/svg">
    <g id="IconSvg_bgCarrier" stroke-width="0"></g>
    <g id="IconSvg_tracerCarrier" stroke-linecap="round" stroke-linejoin="round" stroke="#FFFFFF"></g>
    <g id="IconSvg_iconCarrier">
      <g xmlns="http://www.w3.org/2000/svg">
        <path d="m400 163.84c-62.637 0-122.7 24.883-166.99 69.172-44.289 44.289-69.172 104.36-69.172 166.99 0 62.633 24.883 122.7 69.172 166.99 44.289 44.289 104.36 69.172 166.99 69.172 62.633 0 122.7-24.883 166.99-69.172 44.289-44.289 69.172-104.36 69.172-166.99-0.070312-62.613-24.977-122.64-69.25-166.91-44.273-44.273-104.3-69.176-166.91-69.25zm0 456.58c-58.461 0-114.52-23.223-155.86-64.559-41.336-41.336-64.559-97.398-64.559-155.86 0-58.461 23.223-114.52 64.559-155.86s97.398-64.559 155.86-64.559c58.457 0 114.52 23.223 155.86 64.559 41.336 41.336 64.559 97.398 64.559 155.86-0.066406 58.438-23.309 114.46-64.633 155.78-41.32 41.324-97.344 64.566-155.78 64.633z"></path>
        <path d="m588.93 392.12h15.742v15.742h-15.742z"></path>
        <path d="m195.32 392.12h15.742v15.742h-15.742z"></path>
        <path d="m528.26 268.48 15.742-15.742 11.133 11.133-15.742 15.742z"></path>
        <path d="m252.74 544 15.742-15.742 11.133 11.133-15.742 15.742z"></path>
        <path d="m559.75 323.58 15.742-15.742 11.133 11.133-15.742 15.742z"></path>
        <path d="m213.38 488.89 15.742-15.742 11.133 11.133-15.742 15.742z"></path>
        <path d="m567.62 468.54 11.133-11.133 15.742 15.742-11.133 11.133z"></path>
        <path d="m213.38 318.98 11.133-11.133 15.742 15.742-11.133 11.133z"></path>
        <path d="m520.38 539.39 11.133-11.133 15.742 15.742-11.133 11.133z"></path>
        <path d="m244.87 263.87 11.133-11.133 15.742 15.742-11.133 11.133z"></path>
        <path d="m299.97 224.51 11.133-11.133 15.742 15.742-11.133 11.133z"></path>
        <path d="m473.15 229.12 15.742-15.742 11.133 11.133-15.742 15.742z"></path>
        <path d="m301.17 369.3c-1.8711-4.6016-4.9961-8.5898-9.0156-11.512s-8.7773-4.6602-13.734-5.0195c-4.8828 0.34766-9.5781 2.0391-13.562 4.8867-3.9844 2.8516-7.1016 6.7461-9.0039 11.258-1.207-0.26562-2.4414-0.39844-3.6797-0.39844-14.461 0-25.363 16.914-25.363 39.359h15.742c0-14.648 6.2344-23.617 9.6211-23.617 0.92578 0.17188 1.7734 0.62891 2.4258 1.3086 1.9805 1.7305 4.6914 2.3594 7.2305 1.6758 2.5391-0.67969 4.5703-2.5859 5.4141-5.0781 2.7617-8.1406 7.25-13.648 11.176-13.648 3.3711 0 7.3516 4.2891 10.141 10.934 1.3008 2.9805 4.2734 4.8828 7.5234 4.8086 3.4258 0.33203 9.4453 9.2344 9.4453 23.617h15.742c0.003906-19.625-8.3398-35.031-20.102-38.574z"></path>
        <path d="m266.18 400h15.742v15.742h-15.742z"></path>
        <path d="m242.56 423.61h15.742v15.742h-15.742z"></path>
        <path d="m274.05 431.49h15.742v15.742h-15.742z"></path>
        <path d="m549.57 400c0-6.2656-2.4883-12.273-6.918-16.699-4.4258-4.4297-10.434-6.918-16.699-6.918-6.2617 0-12.27 2.4883-16.699 6.918-4.4258 4.4258-6.9141 10.434-6.9141 16.699 0 6.2617 2.4883 12.27 6.9141 16.699 4.4297 4.4258 10.438 6.9141 16.699 6.9141 6.2656 0 12.273-2.4883 16.699-6.9141 4.4297-4.4297 6.918-10.438 6.918-16.699zm-31.488 0c0-3.1836 1.918-6.0547 4.8594-7.2734s6.3281-0.54687 8.5781 1.707c2.2539 2.25 2.9258 5.6367 1.707 8.5781-1.2188 2.9414-4.0859 4.8594-7.2734 4.8594-4.3477 0-7.8711-3.5234-7.8711-7.8711z"></path>
        <path d="m518.08 352.77h15.742v15.742h-15.742z"></path>
        <path d="m518.08 431.49h15.742v15.742h-15.742z"></path>
        <path d="m557.44 392.12h15.742v15.742h-15.742z"></path>
        <path d="m478.72 392.12h15.742v15.742h-15.742z"></path>
        <path d="m542.65 372.16 11.133-11.133 11.133 11.133-11.133 11.133z"></path>
        <path d="m486.99 427.83 11.133-11.133 11.133 11.133-11.133 11.133z"></path>
        <path d="m542.66 427.83 11.133-11.133 11.133 11.133-11.133 11.133z"></path>
        <path d="m486.98 372.16 11.133-11.133 11.133 11.133-11.133 11.133z"></path>
        <path d="m397.18 234.69h15.742v15.375h-15.742z"></path>
        <path d="m435.79 272.93h15.375v15.742h-15.375z"></path>
        <path d="m421.22 253.5 10.871-10.871 11.133 11.133-10.871 10.871z"></path>
        <path d="m347.96 305.49 59.039 6.5586 0.92188-8.2891v-0.003906c7.9492-0.96484 14.84-5.9648 18.219-13.223 3.3828-7.2617 2.7773-15.75-1.5977-22.457-4.3789-6.707-11.906-10.684-19.91-10.512-8.0078 0.17188-15.359 4.4648-19.445 11.352-9.7305-4.3555-21.004-3.4805-29.945 2.332-8.9375 5.8086-14.316 15.754-14.289 26.418 0 4.0117 3.0195 7.3828 7.0078 7.8242zm57.09-32.188-0.003907-0.003906c3.0352 0 5.7695 1.8281 6.9336 4.6328 1.1602 2.8047 0.51953 6.0312-1.6289 8.1758-2.1445 2.1445-5.3711 2.7852-8.1758 1.625-2.8008-1.1602-4.6289-3.8945-4.6289-6.9297 0.007813-4.1406 3.3633-7.4922 7.5-7.5039zm-32.609 8.6172c3.6211 0.003906 7.125 1.3047 9.8711 3.6602 0.62109 2.9648 1.8203 5.7812 3.5273 8.2812l-27.551-3.0703c1.2891-2.6562 3.3008-4.8984 5.8047-6.4688 2.5-1.5664 5.3945-2.3984 8.3477-2.4023z"></path>
        <path d="m507.9 303.23-11.133-11.133-86.652 86.648c-3.1484-1.5391-6.6094-2.3477-10.113-2.3594-6.2656 0-12.273 2.4883-16.699 6.918-4.4297 4.4258-6.918 10.434-6.918 16.699 0.011719 3.5039 0.82031 6.9648 2.3594 10.113l-17.965 17.965h0.003906c-4.7969-2.8906-10.285-4.4336-15.887-4.4648-8.3516 0-16.359 3.3203-22.266 9.2227-5.9062 5.9062-9.2227 13.914-9.2227 22.266 0 8.3516 3.3164 16.363 9.2227 22.266 5.9062 5.9062 13.914 9.2227 22.266 9.2227 8.3516 0 16.359-3.3164 22.266-9.2227 5.9062-5.9023 9.2227-13.914 9.2227-22.266-0.027343-5.6016-1.5703-11.094-4.4648-15.891l17.965-17.957c3.1523 1.5391 6.6094 2.3477 10.117 2.3594 6.2617 0 12.27-2.4883 16.699-6.9141 4.4258-4.4297 6.9141-10.438 6.9141-16.699-0.011719-3.5078-0.82031-6.9648-2.3594-10.117zm-163 167.62c-4.1758 0-8.1797-1.6602-11.133-4.6133s-4.6133-6.957-4.6133-11.133c0-4.1758 1.6602-8.1797 4.6133-11.133s6.957-4.6094 11.133-4.6094 8.1797 1.6562 11.133 4.6094 4.6094 6.957 4.6094 11.133c0 4.1758-1.6562 8.1797-4.6094 11.133s-6.957 4.6133-11.133 4.6133zm55.105-62.977c-3.1836 0-6.0547-1.918-7.2734-4.8594-1.2188-2.9414-0.54687-6.3281 1.707-8.5781 2.25-2.2539 5.6367-2.9258 8.5781-1.707 2.9414 1.2188 4.8594 4.0898 4.8594 7.2734 0 2.0859-0.82812 4.0898-2.3047 5.5664-1.4766 1.4766-3.4805 2.3047-5.5664 2.3047z"></path>
        <path d="m392.12 195.32h15.742v23.617h-15.742z"></path>
      </g>
    </g>
</svg>